<svg viewBox="0 0 400 400" fill="none" xmlns="http://www.w3.org/2000/svg">
<rect width="400" height="400" rx="200" fill="#663399"/>
<path d="M199.5 315C263.289 315 315 263.289 315 199.5C315 135.711 263.289 84 199.5 84C135.711 84 84 135.711 84 199.5C84 263.289 135.711 315 199.5 315Z" fill="white"/>
<path d="M135.15 263.85C117.825 246.525 108.75 223.425 108.75 201.15L198.675 290.25C175.575 289.425 152.475 281.175 135.15 263.85ZM219.3 287.775L111.225 179.7C120.3 139.275 156.6 108.75 199.5 108.75C230.025 108.75 256.425 123.6 272.925 145.875L260.55 156.6C246.525 137.625 224.25 125.25 199.5 125.25C167.325 125.25 140.1 145.875 129.375 174.75L224.25 269.625C248.175 261.375 266.325 240.75 272.1 216H232.5V199.5H290.25C290.25 242.4 259.725 278.7 219.3 287.775Z" fill="#663399"/>
</svg>
