<svg viewBox="0 0 400 400" fill="none" xmlns="http://www.w3.org/2000/svg">
<rect width="400" height="400" rx="192" fill="white"/>
<path d="M239.282 325V278.803C239.73 273.111 238.96 267.389 237.024 262.017C235.087 256.645 232.028 251.747 228.05 247.647C265.569 243.469 305 229.264 305 164.087C304.997 147.421 298.58 131.394 287.077 119.323C292.524 104.742 292.139 88.6247 286.002 74.3198C286.002 74.3198 271.902 70.1418 239.282 91.9868C211.896 84.5717 183.027 84.5717 155.641 91.9868C123.021 70.1418 108.922 74.3198 108.922 74.3198C102.784 88.6247 102.399 104.742 107.846 119.323C96.2574 131.483 89.8337 147.655 89.9231 164.445C89.9231 229.145 129.354 243.35 166.873 248.005C162.942 252.064 159.91 256.903 157.975 262.21C156.04 267.516 155.244 273.17 155.641 278.803V325M155.641 289.189C95.8974 307.094 95.8974 259.346 72 253.377L155.641 289.189Z" stroke="#ff5436" stroke-width="15" stroke-linecap="round" stroke-linejoin="round"/>
</svg>
