<svg viewBox="0 0 400 400" fill="none" xmlns="http://www.w3.org/2000/svg">
<rect width="400" height="400" rx="200" fill="#F1DB4F"/>
<path d="M153.137 132.812H182.434V231.25C182.434 240.299 180.415 248.307 176.379 255.273C172.408 262.174 166.776 267.513 159.484 271.289C152.193 275.065 143.957 276.953 134.777 276.953C119.738 276.953 108.02 273.145 99.6211 265.527C91.2227 257.845 87.0234 247.005 87.0234 233.008H116.516C116.516 239.974 117.98 245.117 120.91 248.438C123.84 251.758 128.462 253.418 134.777 253.418C140.376 253.418 144.836 251.497 148.156 247.656C151.477 243.815 153.137 238.346 153.137 231.25V132.812ZM281.262 237.695C281.262 232.161 279.309 227.93 275.402 225C271.496 222.005 264.465 218.88 254.309 215.625C244.152 212.305 236.112 209.049 230.188 205.859C214.042 197.135 205.969 185.384 205.969 170.605C205.969 162.923 208.117 156.087 212.414 150.098C216.776 144.043 222.993 139.323 231.066 135.938C239.204 132.552 248.319 130.859 258.41 130.859C268.566 130.859 277.616 132.715 285.559 136.426C293.501 140.072 299.654 145.247 304.016 151.953C308.443 158.659 310.656 166.276 310.656 174.805H281.359C281.359 168.294 279.309 163.249 275.207 159.668C271.105 156.022 265.344 154.199 257.922 154.199C250.76 154.199 245.194 155.729 241.223 158.789C237.251 161.784 235.266 165.755 235.266 170.703C235.266 175.326 237.577 179.199 242.199 182.324C246.887 185.449 253.755 188.379 262.805 191.113C279.471 196.126 291.613 202.344 299.23 209.766C306.848 217.188 310.656 226.432 310.656 237.5C310.656 249.805 306.001 259.473 296.691 266.504C287.382 273.47 274.849 276.953 259.094 276.953C248.156 276.953 238.195 274.967 229.211 270.996C220.227 266.96 213.358 261.458 208.605 254.492C203.918 247.526 201.574 239.453 201.574 230.273H230.969C230.969 245.964 240.344 253.809 259.094 253.809C266.06 253.809 271.496 252.409 275.402 249.609C279.309 246.745 281.262 242.773 281.262 237.695Z" fill="white"/>
</svg>
