<svg viewBox="0 0 400 400" fill="none" xmlns="http://www.w3.org/2000/svg">
<rect width="400" height="400" rx="192" fill="white"/>
<path d="M245.1 160.947C262.843 160.947 279.859 168.001 292.405 180.556C304.952 193.111 312 210.139 312 227.895V306H267.4V227.895C267.4 221.976 265.051 216.3 260.868 212.115C256.686 207.93 251.014 205.579 245.1 205.579C239.186 205.579 233.514 207.93 229.332 212.115C225.149 216.3 222.8 221.976 222.8 227.895V306H178.2V227.895C178.2 210.139 185.248 193.111 197.795 180.556C210.341 168.001 227.357 160.947 245.1 160.947V160.947Z" stroke="#ff5436" stroke-width="15" stroke-linecap="round" stroke-linejoin="round"/>
<path d="M133.6 172.105H89V306H133.6V172.105Z" stroke="#ff5436" stroke-width="15" stroke-linecap="round" stroke-linejoin="round"/>
<path d="M111.3 138.632C123.616 138.632 133.6 128.64 133.6 116.316C133.6 103.991 123.616 94 111.3 94C98.984 94 89 103.991 89 116.316C89 128.64 98.984 138.632 111.3 138.632Z" stroke="#ff5436" stroke-width="15" stroke-linecap="round" stroke-linejoin="round"/>
</svg>
