<svg viewBox="0 0 400 400" fill="none" xmlns="http://www.w3.org/2000/svg">
<rect width="400" height="400" rx="200" fill="black"/>
<g clip-path="url(#clip0)">
<path d="M149.729 159.948H202.051V164.098H154.525V195.334H199.217V199.485H154.525V233.779H202.596V237.929H149.729V159.948ZM206.738 159.948H212.297L236.932 194.242L262.112 159.948L296.36 116.386L240.093 197.846L269.088 237.929H263.311L236.932 201.451L210.444 237.929H204.776L233.989 197.846L206.738 159.948ZM271.159 164.098V159.948H330.784V164.098H303.315V237.929H298.519V164.098H271.159Z" fill="white"/>
<path d="M84.2725 159.948H90.2677L172.938 283.408L138.774 237.929L89.2867 165.846L89.0687 237.929H84.2725V159.948Z" fill="white"/>
</g>
<defs>
<clipPath id="clip0">
<rect width="278" height="167" fill="white" transform="translate(84 116)"/>
</clipPath>
</defs>
</svg>
