<svg viewBox="0 0 400 400" fill="none" xmlns="http://www.w3.org/2000/svg">
<rect width="400" height="400" rx="200" fill="#61DAFB"/>
<path d="M199.47 226.067C214.55 226.067 226.774 213.865 226.774 198.814C226.774 183.763 214.55 171.562 199.47 171.562C184.391 171.562 172.166 183.763 172.166 198.814C172.166 213.865 184.391 226.067 199.47 226.067Z" fill="white"/>
<path d="M346.086 198.814C346.086 179.433 321.77 161.066 284.488 149.676C293.092 111.749 289.268 81.5741 272.42 71.9135C268.536 69.6474 263.996 68.574 259.037 68.574V81.8723C261.785 81.8723 263.996 82.409 265.848 83.4228C273.973 88.0742 277.498 105.785 274.75 128.566C274.093 134.171 273.017 140.075 271.703 146.098C259.993 143.236 247.207 141.029 233.764 139.598C225.699 128.566 217.334 118.547 208.91 109.781C228.387 91.7119 246.669 81.8127 259.096 81.8127V68.5143C242.666 68.5143 221.158 80.2026 199.41 100.478C177.663 80.3218 156.154 68.7529 139.724 68.7529V82.0512C152.092 82.0512 170.434 91.8908 189.911 109.841C181.546 118.607 173.182 128.566 165.236 139.598C151.733 141.029 138.948 143.235 127.237 146.158C125.863 140.194 124.848 134.41 124.131 128.864C121.323 106.084 124.788 88.3724 132.854 83.6613C134.646 82.5879 136.976 82.1109 139.724 82.1109V68.8125C134.706 68.8125 130.165 69.8859 126.222 72.152C109.433 81.8127 105.669 111.928 114.332 149.736C77.1704 161.185 52.9734 179.493 52.9734 198.814C52.9734 218.195 77.2899 236.562 114.571 247.952C105.968 285.88 109.792 316.054 126.64 325.715C130.523 327.981 135.064 329.054 140.083 329.054C156.513 329.054 178.021 317.366 199.769 297.091C221.516 317.247 243.025 328.816 259.455 328.816C264.474 328.816 269.014 327.742 272.957 325.476C289.746 315.816 293.51 285.701 284.847 247.893C321.889 236.503 346.086 218.136 346.086 198.814ZM268.297 159.038C266.087 166.731 263.338 174.663 260.232 182.594C257.782 177.823 255.213 173.052 252.405 168.282C249.657 163.511 246.729 158.86 243.802 154.327C252.285 155.58 260.471 157.13 268.297 159.038ZM240.934 222.548C236.274 230.599 231.494 238.232 226.535 245.329C217.633 246.104 208.611 246.521 199.53 246.521C190.508 246.521 181.487 246.104 172.644 245.388C167.685 238.292 162.846 230.718 158.186 222.727C153.645 214.915 149.523 206.984 145.759 198.993C149.463 191.002 153.645 183.011 158.126 175.199C162.786 167.149 167.566 159.516 172.525 152.419C181.427 151.644 190.449 151.226 199.53 151.226C208.551 151.226 217.573 151.644 226.415 152.359C231.374 159.456 236.214 167.029 240.874 175.02C245.415 182.832 249.537 190.764 253.301 198.755C249.537 206.745 245.415 214.736 240.934 222.548ZM260.232 214.796C263.458 222.787 266.206 230.778 268.477 238.53C260.65 240.439 252.405 242.049 243.861 243.301C246.789 238.709 249.716 233.998 252.465 229.168C255.213 224.397 257.782 219.567 260.232 214.796ZM199.649 278.425C194.093 272.7 188.537 266.32 183.04 259.343C188.417 259.581 193.914 259.76 199.47 259.76C205.086 259.76 210.643 259.641 216.079 259.343C210.702 266.32 205.146 272.7 199.649 278.425ZM155.198 243.301C146.715 242.049 138.529 240.498 130.703 238.59C132.913 230.897 135.662 222.966 138.768 215.035C141.218 219.805 143.787 224.576 146.595 229.347C149.403 234.117 152.271 238.769 155.198 243.301ZM199.351 119.203C204.907 124.928 210.463 131.309 215.96 138.286C210.583 138.047 205.086 137.868 199.53 137.868C193.914 137.868 188.357 137.988 182.921 138.286C188.298 131.309 193.854 124.928 199.351 119.203ZM155.139 154.327C152.211 158.919 149.284 163.63 146.535 168.461C143.787 173.231 141.218 178.002 138.768 182.773C135.542 174.782 132.794 166.791 130.523 159.038C138.35 157.19 146.595 155.58 155.139 154.327ZM101.069 228.989C79.9188 219.984 66.237 208.177 66.237 198.814C66.237 189.452 79.9188 177.585 101.069 168.639C106.207 166.433 111.823 164.465 117.618 162.616C121.024 174.305 125.505 186.47 131.061 198.933C125.565 211.337 121.143 223.443 117.798 235.072C111.883 233.223 106.267 231.195 101.069 228.989ZM133.212 314.206C125.087 309.554 121.562 291.843 124.31 269.063C124.967 263.457 126.043 257.553 127.357 251.53C139.067 254.393 151.853 256.599 165.296 258.031C173.361 269.063 181.726 279.081 190.15 287.847C170.673 305.917 152.39 315.816 139.963 315.816C137.275 315.756 135.004 315.219 133.212 314.206ZM274.929 268.765C277.737 291.545 274.272 309.256 266.206 313.967C264.414 315.04 262.084 315.518 259.335 315.518C246.968 315.518 228.626 305.678 209.149 287.728C217.513 278.962 225.878 269.003 233.824 257.971C247.327 256.54 260.112 254.333 271.822 251.411C273.196 257.434 274.272 263.219 274.929 268.765ZM297.931 228.989C292.793 231.195 287.177 233.163 281.382 235.012C277.976 223.324 273.495 211.158 267.939 198.695C273.435 186.291 277.857 174.185 281.202 162.557C287.117 164.405 292.733 166.433 297.991 168.639C319.141 177.644 332.823 189.452 332.823 198.814C332.763 208.177 319.081 220.044 297.931 228.989Z" fill="white"/>
</svg>
