<svg viewBox="0 0 400 400" fill="none" xmlns="http://www.w3.org/2000/svg">
<rect width="400" height="400" rx="192" fill="white"/>
<path d="M322 100.112C311.379 107.603 299.62 113.332 287.175 117.08C280.495 109.4 271.618 103.956 261.743 101.486C251.869 99.0154 241.474 99.6368 231.965 103.266C222.455 106.896 214.29 113.358 208.573 121.779C202.856 130.2 199.864 140.173 200 150.35V161.441C180.509 161.946 161.196 157.624 143.78 148.858C126.365 140.093 111.387 127.157 100.182 111.202C100.182 111.202 55.8182 211.014 155.636 255.375C132.795 270.879 105.585 278.653 78 277.556C177.818 333.007 299.818 277.556 299.818 150.018C299.808 146.929 299.511 143.847 298.931 140.813C310.25 129.65 318.238 115.557 322 100.112Z" stroke="#ff5436" stroke-width="15" stroke-linecap="round" stroke-linejoin="round"/>
</svg>
